Coordinates
version=1
nRows=33
nColumns=24
inDegrees=yes

Units are S.I. units (second, meters, Newtons, ...)
If the header above contains a line with 'inDegrees', this indicates whether rotational values are in degrees (yes) or radians (no).

endheader
time	pelvis_tilt	pelvis_list	pelvis_rotation	pelvis_tx	pelvis_ty	pelvis_tz	hip_flexion_r	hip_adduction_r	hip_rotation_r	knee_angle_r	ankle_angle_r	subtalar_angle_r	mtp_angle_r	hip_flexion_l	hip_adduction_l	hip_rotation_l	knee_angle_l	ankle_angle_l	subtalar_angle_l	mtp_angle_l	lumbar_extension	lumbar_bending	lumbar_rotation
5.775000	11.448444	2.895673	-180.750092	0.317451	0.604548	-1.210728	67.899116	-25.757575	-14.298436	-93.515880	32.219175	6.919417	0.000000	71.564717	-31.227964	-6.876561	-93.848549	32.772354	14.121937	0.000000	-9.651251	2.847466	2.817717
5.780000	11.460732	2.917592	-180.753998	0.317658	0.601027	-1.210601	68.383116	-25.896341	-14.126252	-94.217848	32.460443	7.020682	0.000000	72.103018	-31.293615	-6.587582	-94.516649	33.009882	14.130517	0.000000	-9.689330	2.884856	2.855541
5.785000	11.404804	2.923008	-180.780809	0.317812	0.597604	-1.210513	68.809195	-26.021156	-13.940203	-94.929899	32.728837	7.009595	0.000000	72.547425	-31.389809	-6.323508	-95.213783	33.306893	14.094872	0.000000	-9.811253	2.891272	2.887078
5.790000	11.356816	2.936125	-180.787355	0.317912	0.594227	-1.210397	69.214477	-26.160479	-13.761514	-95.617431	32.980564	7.050109	0.000000	73.005869	-31.465822	-6.044245	-95.920407	33.589684	14.099567	0.000000	-9.913018	2.920189	2.909940
5.795000	11.333847	2.985742	-180.791321	0.318034	0.590883	-1.210441	69.611846	-26.256159	-13.621352	-96.279811	33.220926	7.168253	0.000000	73.500931	-31.615129	-5.814041	-96.873151	34.123123	14.302523	0.000000	-9.985271	2.956345	2.973476
5.800000	11.314752	2.960098	-180.779198	0.318247	0.587603	-1.210419	70.050684	-26.405325	-13.408493	-96.924385	33.461492	7.241468	0.000000	73.972440	-31.626794	-5.470301	-97.294890	34.143494	14.386151	0.000000	-10.074747	2.921773	2.948522
5.805000	11.248502	2.992694	-180.784493	0.318315	0.584400	-1.210479	70.397549	-26.506987	-13.262570	-97.568633	33.713841	7.262193	0.000000	74.360714	-31.759702	-5.318636	-98.096415	34.619702	14.330206	0.000000	-10.201078	2.943661	2.950870
5.810000	11.216603	2.990165	-180.808936	0.318422	0.581217	-1.210443	70.812993	-26.621206	-13.072670	-98.202148	33.970094	7.306884	0.000000	74.800228	-31.835288	-5.040310	-98.759566	34.878286	14.394794	0.000000	-10.295091	2.931842	3.000356
5.815000	11.133964	2.911685	-180.742385	0.318352	0.578157	-1.209882	71.183973	-26.919699	-12.821536	-98.830235	34.176900	7.482734	0.000000	75.106240	-31.766908	-4.896872	-99.395467	35.103870	14.414044	0.000000	-10.417622	2.913323	2.943624
5.820000	11.137557	2.985995	-180.841816	0.318604	0.574926	-1.210302	71.607026	-26.870192	-12.706663	-99.440187	34.383313	7.494464	0.000000	75.636885	-31.981105	-4.550623	-100.000935	35.299931	14.488090	0.000000	-10.485174	2.928114	3.096588
5.825000	11.132107	2.975234	-180.825761	0.318773	0.571839	-1.210319	72.020379	-26.995559	-12.519991	-100.025844	34.591468	7.526544	0.000000	76.070210	-32.005781	-4.310217	-100.565325	35.527083	14.526703	0.000000	-10.549782	2.913972	3.082131
5.830000	11.062820	2.973043	-180.835707	0.318878	0.568893	-1.210392	72.349662	-27.089138	-12.348992	-100.599200	34.815105	7.546998	0.000000	76.427105	-32.078437	-4.074937	-101.116847	35.776407	14.568375	0.000000	-10.690521	2.898442	3.111884
5.835000	11.062421	2.961848	-180.847767	0.319012	0.565892	-1.210349	72.775759	-27.202958	-12.152546	-101.176844	34.984849	7.655134	0.000000	76.866346	-32.130603	-3.841654	-101.690891	35.955499	14.629793	0.000000	-10.746668	2.894636	3.140871
5.840000	10.986486	2.939813	-180.858773	0.319079	0.563012	-1.210363	73.117316	-27.315278	-11.963454	-101.761779	35.213791	7.633080	0.000000	77.198630	-32.188473	-3.626965	-102.254610	36.173846	14.617103	0.000000	-10.877201	2.859184	3.198863
5.845000	10.987578	2.846406	-180.869965	0.319206	0.560122	-1.210157	73.581131	-27.474143	-11.669428	-102.310864	35.377609	7.771054	0.000000	77.743942	-32.132134	-2.956279	-102.691968	35.785841	15.285290	0.000000	-10.932526	2.787748	3.198601
5.850000	10.932240	2.831517	-180.860151	0.319299	0.557322	-1.210249	73.908160	-27.579357	-11.491733	-102.849320	35.595546	7.795667	0.000000	78.075001	-32.175820	-2.745540	-103.136157	36.079779	15.338645	0.000000	-11.048310	2.753576	3.213393
5.855000	10.910361	2.799951	-180.846579	0.319417	0.554500	-1.210244	74.282725	-27.704866	-11.284478	-103.374034	35.780951	7.907630	0.000000	78.450245	-32.199509	-2.511419	-103.621491	36.191809	15.511420	0.000000	-11.126336	2.721022	3.225041
5.860000	10.849101	2.789081	-180.845092	0.319447	0.551826	-1.210271	74.599819	-27.810829	-11.113169	-103.900234	35.952900	7.934791	0.000000	78.751010	-32.261036	-2.373139	-104.124097	36.438078	15.472699	0.000000	-11.248944	2.711020	3.216920
5.865000	10.802356	2.849118	-180.896162	0.319494	0.549177	-1.210474	74.895221	-27.820812	-11.013918	-104.414643	36.119793	8.003447	0.000000	78.966422	-32.456781	-2.644648	-104.807965	37.058129	14.784661	0.000000	-11.351764	2.753871	3.321355
5.870000	10.786199	2.759648	-180.896498	0.319575	0.546523	-1.210324	75.310394	-27.987256	-10.758220	-104.924499	36.275210	8.085793	0.000000	79.445152	-32.408958	-1.978454	-105.110749	36.777892	15.578837	0.000000	-11.425195	2.680995	3.311289
5.875000	10.712377	2.841719	-180.918300	0.319581	0.543993	-1.210569	75.523186	-28.008994	-10.714735	-105.408027	36.462252	8.066346	0.000000	79.655327	-32.601114	-2.193896	-105.795847	37.445560	15.104211	0.000000	-11.555667	2.750395	3.343872
5.880000	10.682405	2.726380	-180.906504	0.319686	0.541449	-1.210430	75.920193	-28.167606	-10.416322	-105.885821	36.600730	8.188365	0.000000	80.067775	-32.524275	-1.617763	-106.060035	37.129014	15.712050	0.000000	-11.654473	2.654616	3.282777
5.885000	10.609739	2.740909	-180.937360	0.319737	0.539036	-1.210593	76.174809	-28.201834	-10.285091	-106.344346	36.785882	8.178012	0.000000	80.346999	-32.631603	-1.463009	-106.544798	37.352430	15.678212	0.000000	-11.789693	2.637953	3.333976
5.890000	10.566422	2.742557	-180.951375	0.319746	0.536635	-1.210619	76.466327	-28.281125	-10.143123	-106.802811	36.941182	8.251828	0.000000	80.665945	-32.688921	-1.196239	-106.940071	37.467359	15.854389	0.000000	-11.874718	2.632307	3.394460
5.895000	10.509755	2.752049	-180.970749	0.319777	0.534321	-1.210683	76.734350	-28.338935	-10.011490	-107.249553	37.113720	8.247959	0.000000	80.957098	-32.765162	-0.992464	-107.369848	37.620071	15.849605	0.000000	-11.985380	2.617870	3.462800
5.900000	10.489186	2.748477	-180.971005	0.319796	0.532017	-1.210656	77.033172	-28.441984	-9.875179	-107.679004	37.231729	8.321660	0.000000	81.281154	-32.795703	-0.784017	-107.847208	37.680912	15.927037	0.000000	-12.049316	2.636285	3.454969
5.905000	10.417059	2.743006	-180.992545	0.319825	0.529794	-1.210850	77.267711	-28.481492	-9.729392	-108.097665	37.377867	8.330657	0.000000	81.512463	-32.883427	-0.664797	-108.186471	37.955382	15.904111	0.000000	-12.171561	2.617891	3.463058
5.910000	10.374604	2.719160	-180.971534	0.319847	0.527569	-1.210891	77.540660	-28.589658	-9.568932	-108.511957	37.501580	8.433506	0.000000	81.790572	-32.902132	-0.504391	-108.606828	38.051337	15.965901	0.000000	-12.251427	2.581377	3.494302
5.915000	10.342069	2.702285	-180.973009	0.319846	0.525423	-1.210967	77.818381	-28.663765	-9.417423	-108.921603	37.629241	8.463309	0.000000	82.063219	-32.934807	-0.316892	-109.035706	38.136542	16.046702	0.000000	-12.328353	2.562567	3.499894
5.920000	10.265879	2.700947	-180.987581	0.319774	0.523331	-1.211006	78.042375	-28.730114	-9.285428	-109.331395	37.772877	8.470460	0.000000	82.293688	-32.998372	-0.144024	-109.386083	38.310885	16.045656	0.000000	-12.449648	2.554883	3.494518
5.925000	10.220350	2.779082	-180.985660	0.319713	0.521230	-1.211172	78.228170	-28.764565	-9.255448	-109.731266	37.926910	8.500397	0.000000	82.476845	-33.121496	-0.354582	-109.963625	38.816668	15.394270	0.000000	-12.520033	2.615567	3.545444
5.930000	10.180958	2.701914	-180.968706	0.319704	0.519210	-1.211111	78.518566	-28.881427	-9.021199	-110.110096	38.055197	8.596431	0.000000	82.834469	-33.058700	0.239976	-110.134464	38.502522	16.148176	0.000000	-12.584045	2.544686	3.532721
5.935000	10.132306	2.692708	-180.941507	0.319695	0.517275	-1.211222	78.725555	-28.960961	-8.894827	-110.470191	38.181069	8.601098	0.000000	83.058379	-33.080717	0.348713	-110.495151	38.698860	16.132901	0.000000	-12.662654	2.523238	3.501181
